<mxfile host="app.diagrams.net" agent="Mozilla/5.0 (Macintosh; Intel Mac OS X 10_15_7) AppleWebKit/537.36 (KHTML, like Gecko) Chrome/126.0.0.0 Safari/537.36" version="24.7.10" pages="2">
  <diagram name="Question 1" id="G0ggCSemv8RkMHY6kSYs">
    <mxGraphModel dx="984" dy="626" grid="1" gridSize="10" guides="1" tooltips="1" connect="1" arrows="1" fold="1" page="1" pageScale="1" pageWidth="850" pageHeight="1100" math="0" shadow="0">
      <root>
        <mxCell id="0" />
        <mxCell id="1" parent="0" />
        <mxCell id="Yl8MLj6aumAEBPvpJJGh-1" value="&lt;div&gt;BAND&lt;/div&gt;&lt;div&gt;&lt;u&gt;&lt;b&gt;UNIQUE CODE&lt;/b&gt;&lt;/u&gt;&lt;/div&gt;&lt;div&gt;&lt;b&gt;Band Name&lt;/b&gt;&lt;/div&gt;&lt;div&gt;&lt;b&gt;Year Founded&lt;/b&gt;&lt;/div&gt;&lt;div&gt;&lt;b&gt;Country&lt;/b&gt;&lt;/div&gt;&lt;div&gt;&lt;b&gt;{Genre}&lt;/b&gt;&lt;/div&gt;" style="whiteSpace=wrap;html=1;align=center;" parent="1" vertex="1">
          <mxGeometry x="80" y="50" width="120" height="140" as="geometry" />
        </mxCell>
        <mxCell id="Yl8MLj6aumAEBPvpJJGh-2" value="&lt;div&gt;ALBUMS&lt;/div&gt;&lt;div&gt;&lt;u&gt;&lt;b&gt;UNIQUE ID&lt;/b&gt;&lt;/u&gt;&lt;/div&gt;&lt;div&gt;&lt;b&gt;Album Title&lt;/b&gt;&lt;/div&gt;&lt;div&gt;&lt;span style=&quot;background-color: initial;&quot;&gt;&lt;b&gt;Release Date&lt;/b&gt;&lt;/span&gt;&lt;/div&gt;&lt;div&gt;&lt;b&gt;[Total Length (Minutes, Seconds)]&lt;/b&gt;&lt;/div&gt;&lt;div&gt;Total Sales&lt;/div&gt;&lt;div&gt;Highest Billboard Rank Reached&lt;/div&gt;" style="whiteSpace=wrap;html=1;align=center;" parent="1" vertex="1">
          <mxGeometry x="320" y="50" width="210" height="140" as="geometry" />
        </mxCell>
        <mxCell id="Yl8MLj6aumAEBPvpJJGh-3" value="&lt;div&gt;TRACKS&lt;/div&gt;&lt;div&gt;&lt;span style=&quot;border-bottom: 3px double;margin-bottom: 5px;&quot;&gt;&lt;b&gt;Track Number&lt;/b&gt;&lt;/span&gt;&lt;/div&gt;&lt;div&gt;&lt;b&gt;Track Title&lt;br&gt;&lt;/b&gt;&lt;/div&gt;&lt;div&gt;&lt;b&gt;Duration (Minutes, Seconds)&lt;/b&gt;&lt;/div&gt;&lt;div&gt;{Remix/Alternate Of}&lt;/div&gt;" style="shape=ext;margin=3;double=1;whiteSpace=wrap;html=1;align=center;" parent="1" vertex="1">
          <mxGeometry x="45" y="330" width="190" height="140" as="geometry" />
        </mxCell>
        <mxCell id="Yl8MLj6aumAEBPvpJJGh-4" value="" style="edgeStyle=entityRelationEdgeStyle;fontSize=12;html=1;endArrow=ERzeroToMany;startArrow=ERmandOne;rounded=0;entryX=0;entryY=0.5;entryDx=0;entryDy=0;exitX=1;exitY=0.5;exitDx=0;exitDy=0;" parent="1" source="Yl8MLj6aumAEBPvpJJGh-1" target="Yl8MLj6aumAEBPvpJJGh-2" edge="1">
          <mxGeometry width="100" height="100" relative="1" as="geometry">
            <mxPoint x="190" y="250" as="sourcePoint" />
            <mxPoint x="290" y="150" as="targetPoint" />
          </mxGeometry>
        </mxCell>
        <mxCell id="Yl8MLj6aumAEBPvpJJGh-5" value="" style="edgeStyle=entityRelationEdgeStyle;fontSize=12;html=1;endArrow=ERoneToMany;startArrow=ERmandOne;rounded=0;endFill=0;" parent="1" edge="1">
          <mxGeometry width="100" height="100" relative="1" as="geometry">
            <mxPoint x="540" y="130" as="sourcePoint" />
            <mxPoint x="140" y="320" as="targetPoint" />
            <Array as="points">
              <mxPoint x="180" y="320" />
              <mxPoint x="130" y="280" />
            </Array>
          </mxGeometry>
        </mxCell>
        <mxCell id="Yl8MLj6aumAEBPvpJJGh-6" value="Min 6" style="text;html=1;strokeColor=none;fillColor=none;align=center;verticalAlign=middle;whiteSpace=wrap;rounded=0;" parent="1" vertex="1">
          <mxGeometry x="110" y="280" width="60" height="30" as="geometry" />
        </mxCell>
        <mxCell id="Yl8MLj6aumAEBPvpJJGh-7" value="Creates" style="text;html=1;strokeColor=none;fillColor=none;align=center;verticalAlign=middle;whiteSpace=wrap;rounded=0;" parent="1" vertex="1">
          <mxGeometry x="230" y="90" width="60" height="30" as="geometry" />
        </mxCell>
        <mxCell id="Yl8MLj6aumAEBPvpJJGh-8" value="Contains" style="text;html=1;strokeColor=none;fillColor=none;align=center;verticalAlign=middle;whiteSpace=wrap;rounded=0;" parent="1" vertex="1">
          <mxGeometry x="360" y="230" width="60" height="30" as="geometry" />
        </mxCell>
        <mxCell id="Yl8MLj6aumAEBPvpJJGh-9" value="" style="edgeStyle=entityRelationEdgeStyle;fontSize=12;html=1;endArrow=ERzeroToMany;startArrow=ERzeroToOne;rounded=0;" parent="1" target="Yl8MLj6aumAEBPvpJJGh-3" edge="1">
          <mxGeometry width="100" height="100" relative="1" as="geometry">
            <mxPoint x="240" y="350" as="sourcePoint" />
            <mxPoint x="540" y="479.99999999999994" as="targetPoint" />
            <Array as="points">
              <mxPoint x="831.96" y="437.96" />
              <mxPoint x="631.96" y="587.96" />
              <mxPoint x="801.96" y="517.96" />
              <mxPoint x="861.96" y="457.96" />
            </Array>
          </mxGeometry>
        </mxCell>
        <mxCell id="PCDuRVIcthgbH_ILbc4l-1" value="Remixes" style="text;html=1;strokeColor=none;fillColor=none;align=center;verticalAlign=middle;whiteSpace=wrap;rounded=0;" parent="1" vertex="1">
          <mxGeometry x="280" y="360" width="60" height="30" as="geometry" />
        </mxCell>
      </root>
    </mxGraphModel>
  </diagram>
  <diagram id="o_gynNenJDcldiGXe5-G" name="Question 2">
    <mxGraphModel dx="703" dy="447" grid="1" gridSize="10" guides="1" tooltips="1" connect="1" arrows="1" fold="1" page="1" pageScale="1" pageWidth="850" pageHeight="1100" math="0" shadow="0">
      <root>
        <mxCell id="0" />
        <mxCell id="1" parent="0" />
        <mxCell id="-OQ1VOCRAkG5Sb6Z3kr7-1" value="&lt;div&gt;CEREMONIES&lt;/div&gt;&lt;div&gt;&lt;br&gt;&lt;/div&gt;&lt;div&gt;&lt;u&gt;&lt;b&gt;CeremonyID&lt;/b&gt;&lt;/u&gt;&lt;/div&gt;&lt;div&gt;&lt;b&gt;Date&lt;/b&gt;&lt;/div&gt;&lt;div&gt;Network&lt;/div&gt;&lt;div&gt;Millions of Viewers&lt;/div&gt;" style="whiteSpace=wrap;html=1;align=center;" parent="1" vertex="1">
          <mxGeometry x="130" y="190" width="120" height="140" as="geometry" />
        </mxCell>
        <mxCell id="-OQ1VOCRAkG5Sb6Z3kr7-2" value="&lt;div&gt;LOCATIONS&lt;/div&gt;&lt;div&gt;&lt;u style=&quot;background-color: initial;&quot;&gt;&lt;b&gt;&lt;br&gt;&lt;/b&gt;&lt;/u&gt;&lt;/div&gt;&lt;div&gt;&lt;u style=&quot;background-color: initial;&quot;&gt;&lt;b&gt;LocationCode&lt;/b&gt;&lt;/u&gt;&lt;/div&gt;&lt;div&gt;&lt;b&gt;Location (City, State Code, Country)&lt;/b&gt;&lt;/div&gt;" style="whiteSpace=wrap;html=1;align=center;" parent="1" vertex="1">
          <mxGeometry x="340" y="100" width="120" height="140" as="geometry" />
        </mxCell>
        <mxCell id="-OQ1VOCRAkG5Sb6Z3kr7-3" value="&lt;div&gt;HOSTS&lt;/div&gt;&lt;div&gt;&lt;br&gt;&lt;/div&gt;&lt;div&gt;&lt;u&gt;&lt;b&gt;HostID&lt;/b&gt;&lt;/u&gt;&lt;/div&gt;&lt;div&gt;&lt;b&gt;Host (First, Last)&lt;/b&gt;&lt;/div&gt;&lt;div&gt;&lt;b&gt;{Known For}&lt;/b&gt;&lt;/div&gt;&lt;div&gt;&lt;b&gt;[Times Hosted]&lt;/b&gt;&lt;/div&gt;" style="whiteSpace=wrap;html=1;align=center;" parent="1" vertex="1">
          <mxGeometry x="340" y="290" width="120" height="140" as="geometry" />
        </mxCell>
        <mxCell id="-OQ1VOCRAkG5Sb6Z3kr7-4" value="" style="edgeStyle=entityRelationEdgeStyle;fontSize=12;html=1;endArrow=ERmandOne;startArrow=ERmandOne;rounded=0;exitX=1;exitY=0.25;exitDx=0;exitDy=0;entryX=0;entryY=0.25;entryDx=0;entryDy=0;" parent="1" source="-OQ1VOCRAkG5Sb6Z3kr7-1" target="-OQ1VOCRAkG5Sb6Z3kr7-2" edge="1">
          <mxGeometry width="100" height="100" relative="1" as="geometry">
            <mxPoint x="240" y="240" as="sourcePoint" />
            <mxPoint x="340" y="140" as="targetPoint" />
          </mxGeometry>
        </mxCell>
        <mxCell id="FRHM1TtJi2vK89cQi-1e-1" value="" style="edgeStyle=entityRelationEdgeStyle;fontSize=12;html=1;endArrow=ERzeroToMany;startArrow=ERoneToMany;rounded=0;endFill=0;exitX=1.005;exitY=0.598;exitDx=0;exitDy=0;exitPerimeter=0;entryX=0;entryY=0.5;entryDx=0;entryDy=0;" edge="1" parent="1" source="-OQ1VOCRAkG5Sb6Z3kr7-1" target="-OQ1VOCRAkG5Sb6Z3kr7-3">
          <mxGeometry width="100" height="100" relative="1" as="geometry">
            <mxPoint x="340" y="350" as="sourcePoint" />
            <mxPoint x="330" y="380" as="targetPoint" />
          </mxGeometry>
        </mxCell>
        <mxCell id="l63VMVd5FuUCUN8vJkQk-1" value="Takes Place In" style="text;html=1;strokeColor=none;fillColor=none;align=center;verticalAlign=middle;whiteSpace=wrap;rounded=0;" vertex="1" parent="1">
          <mxGeometry x="240" y="140" width="60" height="30" as="geometry" />
        </mxCell>
        <mxCell id="l63VMVd5FuUCUN8vJkQk-2" value="Has" style="text;html=1;strokeColor=none;fillColor=none;align=center;verticalAlign=middle;whiteSpace=wrap;rounded=0;" vertex="1" parent="1">
          <mxGeometry x="250" y="345" width="60" height="30" as="geometry" />
        </mxCell>
      </root>
    </mxGraphModel>
  </diagram>
</mxfile>
